<svg xmlns="http://www.w3.org/2000/svg" viewBox="0 0 600 600">
    <path
        d="M526.3 118.3 310 2.5a20.8 20.8 0 0 0-19.6 0L74 118.3a20.8 20.8 0 0 0-11 18.3v254c0 7.2 3.7 14 9.8 17.7L383.2 600l-1.2-91.5.2-3-89.1-55a25.6 25.6 0 1 1 7.7-12.4l88.3 54.5a22 22 0 0 1 2.9-2.1l50.9-31-167-102.8a25.6 25.6 0 1 1 7.7-12.4L457 451l56.4-34.3-122-75.3a25.6 25.6 0 1 1 7.7-12.4l128.3 79.2a20.5 20.5 0 0 0 9.7-17.7v-254c0-7.6-4-14.7-10.7-18.3Zm-243.2-.3c0 1-.6 2-1.5 2.4l-61.7 33c-.9.5-1.4 1.5-1.4 2.5v150.4c0 1-.6 2-1.5 2.5l-65.6 35c-1.8 1-4-.3-4-2.4V197c0-2-2.3-3.4-4.1-2.4l-56.5 30.2c-1.8 1-4-.3-4-2.4V148c0-1 .5-2 1.4-2.4L279 41.3c1.9-1 4.1.3 4.1 2.4V118Z"
        style="fill: #fff"
    />
</svg>
